<?xml version="1.0" encoding="UTF-8"?>
<svg width="82px" height="30px" viewBox="0 0 82 30" version="1.1" xmlns="http://www.w3.org/2000/svg" xmlns:xlink="http://www.w3.org/1999/xlink">
    <!-- Generator: Sketch 52.4 (67378) - http://www.bohemiancoding.com/sketch -->
    <title>Group 3</title>
    <desc>Created with Sketch.</desc>
    <defs>
        <linearGradient x1="2.78571429%" y1="4.76317081%" x2="87.327567%" y2="69.388089%" id="linearGradient-1">
            <stop stop-color="#FFFFFF" offset="0%"></stop>
            <stop stop-color="#24CDFF" offset="100%"></stop>
        </linearGradient>
    </defs>
    <g id="Page-1" stroke="none" stroke-width="1" fill="none" fill-rule="evenodd">
        <g id="01---Home" transform="translate(-70.000000, -5125.000000)">
            <g id="Group-4" transform="translate(0.000000, 5051.000000)">
                <g id="Group-3" transform="translate(70.000000, 74.000000)">
                    <path d="M47.225,12.5 C48.4536728,12.5 49.3688303,12.8103302 49.9705,13.431 C50.5721697,14.0516698 50.873,14.995327 50.873,16.262 L50.873,21.183 C50.873,21.4743348 50.7906675,21.6991659 50.626,21.8575 C50.4613325,22.0158341 50.2333348,22.095 49.942,22.095 C49.6633319,22.095 49.4416675,22.0126675 49.277,21.848 C49.1123325,21.6833325 49.03,21.4616681 49.03,21.183 L49.03,20.48 C48.7893321,21.0120027 48.4315024,21.4204986 47.9565,21.7055 C47.4814976,21.9905014 46.9273365,22.133 46.294,22.133 C45.685997,22.133 45.1286692,22.0095012 44.622,21.7625 C44.1153308,21.5154988 43.7195014,21.1703356 43.4345,20.727 C43.1494986,20.2836645 43.007,19.7896694 43.007,19.245 C43.007,18.5736633 43.1811649,18.0448353 43.5295,17.6585 C43.8778351,17.2721647 44.4541626,16.9966675 45.2585,16.832 C46.0628374,16.6673325 47.167993,16.585 48.574,16.585 L49.011,16.585 L49.011,16.034 C49.011,15.3246631 48.8653348,14.8116683 48.574,14.495 C48.2826652,14.1783318 47.8140032,14.02 47.168,14.02 C46.7246645,14.02 46.3066686,14.0769994 45.914,14.191 C45.5213314,14.3050006 45.090669,14.4696656 44.622,14.685 C44.2799983,14.875001 44.039334,14.97 43.9,14.97 C43.7099991,14.97 43.5548339,14.900334 43.4345,14.761 C43.3141661,14.621666 43.254,14.4443344 43.254,14.229 C43.254,14.0389991 43.3078328,13.8711674 43.4155,13.7255 C43.5231672,13.5798326 43.6973321,13.437334 43.938,13.298 C44.3813356,13.0573321 44.9006637,12.8641674 45.496,12.7185 C46.0913363,12.5728326 46.6676639,12.5 47.225,12.5 Z M46.636,20.708 C47.3326702,20.708 47.9026645,20.4705024 48.346,19.9955 C48.7893356,19.5204976 49.011,18.9093371 49.011,18.162 L49.011,17.668 L48.669,17.668 C47.6809951,17.668 46.9210027,17.7123329 46.389,17.801 C45.8569973,17.8896671 45.4770011,18.038499 45.249,18.2475 C45.0209989,18.456501 44.907,18.7573314 44.907,19.15 C44.907,19.6060023 45.071665,19.9796652 45.401,20.271 C45.730335,20.5623348 46.1419975,20.708 46.636,20.708 Z M59.135625,22.133 C57.8436185,22.133 56.7859625,21.8670027 55.962625,21.335 C55.7346239,21.195666 55.5731255,21.0500008 55.478125,20.898 C55.3831245,20.7459992 55.335625,20.575001 55.335625,20.385 C55.335625,20.1823323 55.3926244,20.011334 55.506625,19.872 C55.6206256,19.732666 55.7662908,19.663 55.943625,19.663 C56.1082925,19.663 56.3679566,19.7643323 56.722625,19.967 C57.1026269,20.1696677 57.4731232,20.3343327 57.834125,20.461 C58.1951268,20.5876673 58.6479556,20.651 59.192625,20.651 C59.800628,20.651 60.2756233,20.5433344 60.617625,20.328 C60.9596267,20.1126656 61.130625,19.8086686 61.130625,19.416 C61.130625,19.1626654 61.0641257,18.9600008 60.931125,18.808 C60.7981243,18.6559992 60.56696,18.5198339 60.237625,18.3995 C59.90829,18.2791661 59.4206282,18.149334 58.774625,18.01 C57.6599528,17.7693321 56.8587941,17.4431687 56.371125,17.0315 C55.8834559,16.6198313 55.639625,16.0593369 55.639625,15.35 C55.639625,14.8053306 55.7979568,14.3145022 56.114625,13.8775 C56.4312933,13.4404978 56.8682889,13.1016679 57.425625,12.861 C57.9829611,12.6203321 58.6162881,12.5 59.325625,12.5 C59.8322942,12.5 60.3262893,12.5664993 60.807625,12.6995 C61.2889607,12.8325007 61.7132898,13.0256654 62.080625,13.279 C62.4986271,13.5576681 62.707625,13.8806648 62.707625,14.248 C62.707625,14.4506677 62.6474589,14.621666 62.527125,14.761 C62.4067911,14.900334 62.2642925,14.97 62.099625,14.97 C61.9856244,14.97 61.8716256,14.9446669 61.757625,14.894 C61.6436244,14.8433331 61.491626,14.7610006 61.301625,14.647 C60.9596233,14.4443323 60.6397932,14.2860006 60.342125,14.172 C60.0444568,14.0579994 59.6739606,14.001 59.230625,14.001 C58.6986223,14.001 58.2711266,14.1149989 57.948125,14.343 C57.6251234,14.5710011 57.463625,14.8813314 57.463625,15.274 C57.463625,15.6286684 57.6124568,15.9041657 57.910125,16.1005 C58.2077932,16.2968343 58.7682876,16.4836658 59.591625,16.661 C60.4402959,16.8383342 61.1052893,17.0409989 61.586625,17.269 C62.0679607,17.4970011 62.413124,17.7788317 62.622125,18.1145 C62.831126,18.4501683 62.935625,18.8776641 62.935625,19.397 C62.935625,20.2203375 62.5904618,20.8821642 61.900125,21.3825 C61.2097882,21.8828358 60.2882974,22.133 59.135625,22.133 Z M71.36925,12.5 C72.5979228,12.5 73.5130803,12.8103302 74.11475,13.431 C74.7164197,14.0516698 75.01725,14.995327 75.01725,16.262 L75.01725,21.183 C75.01725,21.4743348 74.9349175,21.6991659 74.77025,21.8575 C74.6055825,22.0158341 74.3775848,22.095 74.08625,22.095 C73.8075819,22.095 73.5859175,22.0126675 73.42125,21.848 C73.2565825,21.6833325 73.17425,21.4616681 73.17425,21.183 L73.17425,20.48 C72.9335821,21.0120027 72.5757524,21.4204986 72.10075,21.7055 C71.6257476,21.9905014 71.0715865,22.133 70.43825,22.133 C69.830247,22.133 69.2729192,22.0095012 68.76625,21.7625 C68.2595808,21.5154988 67.8637514,21.1703356 67.57875,20.727 C67.2937486,20.2836645 67.15125,19.7896694 67.15125,19.245 C67.15125,18.5736633 67.3254149,18.0448353 67.67375,17.6585 C68.0220851,17.2721647 68.5984126,16.9966675 69.40275,16.832 C70.2070874,16.6673325 71.312243,16.585 72.71825,16.585 L73.15525,16.585 L73.15525,16.034 C73.15525,15.3246631 73.0095848,14.8116683 72.71825,14.495 C72.4269152,14.1783318 71.9582532,14.02 71.31225,14.02 C70.8689145,14.02 70.4509186,14.0769994 70.05825,14.191 C69.6655814,14.3050006 69.234919,14.4696656 68.76625,14.685 C68.4242483,14.875001 68.183584,14.97 68.04425,14.97 C67.8542491,14.97 67.6990839,14.900334 67.57875,14.761 C67.4584161,14.621666 67.39825,14.4443344 67.39825,14.229 C67.39825,14.0389991 67.4520828,13.8711674 67.55975,13.7255 C67.6674172,13.5798326 67.8415821,13.437334 68.08225,13.298 C68.5255856,13.0573321 69.0449137,12.8641674 69.64025,12.7185 C70.2355863,12.5728326 70.8119139,12.5 71.36925,12.5 Z M70.78025,20.708 C71.4769202,20.708 72.0469145,20.4705024 72.49025,19.9955 C72.9335856,19.5204976 73.15525,18.9093371 73.15525,18.162 L73.15525,17.668 L72.81325,17.668 C71.8252451,17.668 71.0652527,17.7123329 70.53325,17.801 C70.0012473,17.8896671 69.6212511,18.038499 69.39325,18.2475 C69.1652489,18.456501 69.05125,18.7573314 69.05125,19.15 C69.05125,19.6060023 69.215915,19.9796652 69.54525,20.271 C69.874585,20.5623348 70.2862475,20.708 70.78025,20.708 Z M81.018875,22.095 C80.7402069,22.095 80.5090426,22.0190008 80.325375,21.867 C80.1417074,21.7149992 80.049875,21.4870015 80.049875,21.183 L80.049875,9.441 C80.049875,9.13699848 80.1417074,8.90583413 80.325375,8.7475 C80.5090426,8.58916588 80.7402069,8.51 81.018875,8.51 C81.2975431,8.51 81.5255408,8.58916588 81.702875,8.7475 C81.8802092,8.90583413 81.968875,9.13699848 81.968875,9.441 L81.968875,21.183 C81.968875,21.4870015 81.8802092,21.7149992 81.702875,21.867 C81.5255408,22.0190008 81.2975431,22.095 81.018875,22.095 Z" id="asal" fill="#FFFFFF"></path>
                    <g id="Group" transform="translate(0.000000, 0.000000)" fill-rule="nonzero">
                        <ellipse id="Oval" fill="url(#linearGradient-1)" opacity="0.55" cx="6.15384615" cy="23.2222222" rx="6.15384615" ry="6.11111111"></ellipse>
                        <path d="M13.0117439,0.85569127 C16.0388897,-0.905825438 19.909686,0.139536846 21.6574094,3.19057328 L31.1510091,19.7637438 C32.8987325,22.8147802 31.8615558,26.7161254 28.83441,28.4776421 C25.8072642,30.2391588 21.9364679,29.1937965 20.1887444,26.1427601 L10.6951448,9.56958957 C8.94742133,6.51855314 9.98459807,2.61720798 13.0117439,0.85569127 Z" id="Rectangle" fill="#FFFFFF"></path>
                    </g>
                </g>
            </g>
        </g>
    </g>
</svg>